<?xml version="1.0" encoding="utf-8"?>
<!-- Generator: Adobe Illustrator 15.0.0, SVG Export Plug-In . SVG Version: 6.00 Build 0)  -->
<!DOCTYPE svg PUBLIC "-//W3C//DTD SVG 1.1//EN" "http://www.w3.org/Graphics/SVG/1.1/DTD/svg11.dtd">
<svg version="1.1" id="Layer_1" xmlns="http://www.w3.org/2000/svg" xmlns:xlink="http://www.w3.org/1999/xlink" x="0px" y="0px"
	 width="26.826px" height="26.374px" viewBox="0 0 26.826 26.374" enable-background="new 0 0 26.826 26.374" xml:space="preserve">
<g>
	<path fill="none" stroke="#000000" stroke-width="1.5" stroke-linejoin="round" stroke-miterlimit="10" d="M12.279,14.095
		C8.67,10.483,7.702,5.266,9.3,0.75C7.553,1.368,5.902,2.334,4.507,3.73c-5.01,5.009-5.01,13.13,0,18.137
		c5.007,5.007,13.125,5.01,18.135,0c1.399-1.395,2.364-3.046,2.979-4.793C21.108,18.672,15.889,17.704,12.279,14.095z"/>
	<polygon points="13.652,6.208 15.37,6.954 16.742,5.589 16.57,7.487 18.193,8.405 16.397,8.805 16.068,10.68 15.111,9.063 
		13.142,9.346 14.437,7.895 	"/>
	
		<polygon fill="none" stroke="#000000" stroke-width="0.5" stroke-linecap="round" stroke-linejoin="round" stroke-miterlimit="10" points="
		13.652,6.208 15.37,6.954 16.742,5.589 16.57,7.487 18.193,8.405 16.397,8.805 16.068,10.68 15.111,9.063 13.142,9.346 
		14.437,7.895 	"/>
	<polygon points="19.31,6.556 21.966,5.603 22.067,2.688 23.836,4.952 26.567,4.286 25.005,6.578 26.576,8.978 23.858,8.189 
		21.986,10.53 21.911,7.6 	"/>
	
		<polygon fill="none" stroke="#000000" stroke-width="0.5" stroke-linecap="round" stroke-linejoin="round" stroke-miterlimit="10" points="
		19.31,6.556 21.966,5.603 22.067,2.688 23.836,4.952 26.567,4.286 25.005,6.578 26.576,8.978 23.858,8.189 21.986,10.53 
		21.911,7.6 	"/>
</g>
</svg>
