<?xml version="1.0" encoding="utf-8"?>
<!-- Generator: Adobe Illustrator 15.0.0, SVG Export Plug-In . SVG Version: 6.00 Build 0)  -->
<!DOCTYPE svg PUBLIC "-//W3C//DTD SVG 1.1//EN" "http://www.w3.org/Graphics/SVG/1.1/DTD/svg11.dtd">
<svg version="1.1" id="Layer_1" xmlns="http://www.w3.org/2000/svg" xmlns:xlink="http://www.w3.org/1999/xlink" x="0px" y="0px"
	 width="37.562px" height="23.62px" viewBox="0 0 37.562 23.62" enable-background="new 0 0 37.562 23.62" xml:space="preserve">
<g>
	<path fill="none" stroke="#231F20" stroke-width="1.5" stroke-linecap="round" stroke-linejoin="round" stroke-miterlimit="10" d="
		M7.721,20.156c0.609-0.112,1.178-0.314,1.697-0.591c2.486,2.523,6.138,3.811,9.884,3.12c2.025-0.372,3.812-1.284,5.258-2.547
		c1.65,1.188,3.759,1.731,5.915,1.334c4.202-0.771,6.981-4.805,6.209-9.007c-0.773-4.201-4.806-6.981-9.007-6.208
		c-0.247,0.046-0.487,0.104-0.724,0.171C24.709,2.402,20.085,0.053,15.3,0.935C11.146,1.698,7.969,4.69,6.766,8.45
		c-0.388-0.007-0.783,0.023-1.18,0.096c-3.206,0.59-5.327,3.667-4.737,6.872C1.438,18.625,4.515,20.746,7.721,20.156z"/>
</g>
</svg>
