<?xml version="1.0" encoding="utf-8"?>
<!-- Generator: Adobe Illustrator 15.0.0, SVG Export Plug-In . SVG Version: 6.00 Build 0)  -->
<!DOCTYPE svg PUBLIC "-//W3C//DTD SVG 1.1//EN" "http://www.w3.org/Graphics/SVG/1.1/DTD/svg11.dtd">
<svg version="1.1" id="Layer_1" xmlns="http://www.w3.org/2000/svg" xmlns:xlink="http://www.w3.org/1999/xlink" x="0px" y="0px"
	 width="41.035px" height="31.176px" viewBox="0 0 41.035 31.176" enable-background="new 0 0 41.035 31.176" xml:space="preserve">
<g>
	<path fill="none" stroke="#231F20" stroke-width="1.5" stroke-linecap="round" stroke-linejoin="round" stroke-miterlimit="10" d="
		M31.8,27.726c-1.444,0-2.776-0.464-3.876-1.238c-1.98,2.389-4.931,3.938-8.274,3.938c-3.343,0-6.293-1.55-8.274-3.938
		c-1.097,0.774-2.431,1.238-3.876,1.238c-3.728,0-6.75-3.022-6.75-6.75c0-3.728,3.022-6.75,6.75-6.75
		c0.912,0,1.777,0.186,2.568,0.513c1.791-3.494,5.388-5.913,9.582-5.913s7.792,2.419,9.581,5.913
		c0.793-0.327,1.658-0.513,2.569-0.513c3.729,0,6.75,3.022,6.75,6.75C38.55,24.704,35.528,27.726,31.8,27.726z"/>
	<path fill="#231F20" d="M39.401,7.507c-1.168-1.346-2.788-2.156-4.562-2.281c-0.755-0.055-1.516,0.026-2.263,0.235l-0.062,0.018
		L32.49,5.42c-1.322-3.093-4.22-5.161-7.564-5.398c-2.732-0.194-5.306,0.876-7.098,2.783c-0.029,0.032-0.263,0.204-0.258,0.525
		c0.004,0.233,0.123,0.428,0.3,0.553c0.112,0.079,0.241,0.136,0.388,0.136c0.148,0,0.277-0.057,0.389-0.136
		c0.024-0.017,0.101-0.076,0.114-0.09c1.524-1.652,3.728-2.585,6.07-2.424c2.837,0.2,5.296,1.956,6.417,4.581L31.74,7.1l1.202-0.338
		c0.597-0.167,1.204-0.229,1.803-0.189c1.413,0.1,2.705,0.746,3.636,1.82c0.933,1.073,1.391,2.443,1.29,3.856
		c-0.056,0.796-0.312,1.551-0.706,2.235c-0.109,0.17-0.201,0.29-0.201,0.291c-0.151,0.22-0.188,0.532-0.007,0.772
		c0.226,0.296,0.646,0.354,0.943,0.131c0.001-0.001,0.118-0.096,0.127-0.108c0.609-0.718,1.113-2.132,1.191-3.226
		C41.144,10.57,40.569,8.854,39.401,7.507"/>
	<path fill="#231F20" d="M39.401,7.507c-1.168-1.346-2.788-2.156-4.562-2.281c-0.755-0.055-1.516,0.026-2.263,0.235l-0.062,0.018
		L32.49,5.42c-1.322-3.093-4.22-5.161-7.564-5.398c-2.732-0.194-5.306,0.876-7.098,2.783c-0.029,0.032-0.263,0.204-0.258,0.525
		c0.004,0.233,0.123,0.428,0.3,0.553c0.112,0.079,0.241,0.136,0.388,0.136c0.148,0,0.277-0.057,0.389-0.136
		c0.024-0.017,0.101-0.076,0.114-0.09c1.524-1.652,3.728-2.585,6.07-2.424c2.837,0.2,5.296,1.956,6.417,4.581L31.74,7.1l1.202-0.338
		c0.597-0.167,1.204-0.229,1.803-0.189c1.413,0.1,2.705,0.746,3.636,1.82c0.933,1.073,1.391,2.443,1.29,3.856
		c-0.056,0.796-0.312,1.551-0.706,2.235c-0.109,0.17-0.201,0.29-0.201,0.291c-0.151,0.22-0.188,0.532-0.007,0.772
		c0.226,0.296,0.646,0.354,0.943,0.131c0.001-0.001,0.118-0.096,0.127-0.108c0.609-0.718,1.113-2.132,1.191-3.226
		C41.144,10.57,40.569,8.854,39.401,7.507"/>
	<path fill="#231F20" d="M18.668,5.562c-1.547-0.985-3.213-1.31-4.203-1.207c-1.977,0.114-3.75,1.103-4.883,2.718
		c-0.471-0.219-0.964-0.361-1.47-0.42C5.443,6.334,3.03,8.245,2.716,10.907c-0.093,0.78,0.02,1.556,0.293,2.274
		c0.016,0.043,0.027,0.088,0.045,0.13l0.008-0.004c0.107,0.23,0.325,0.396,0.597,0.396c0.376,0,0.682-0.305,0.682-0.682
		c0-0.117-0.038-0.222-0.09-0.318l0.007-0.004c-0.195-0.515-0.268-1.075-0.202-1.634c0.11-0.929,0.577-1.761,1.313-2.342
		c0.738-0.582,1.659-0.839,2.584-0.731c0.394,0.047,0.78,0.163,1.146,0.346l0.941,0.469l0.587-0.873
		c0.892-1.326,2.32-2.14,3.942-2.235c0.103-0.009,1.812-0.136,3.292,0.931c0.964,0.601,1.279-0.139,1.243-0.465
		C19.058,5.755,18.808,5.65,18.668,5.562"/>
</g>
</svg>
