<?xml version="1.0" encoding="utf-8"?>
<!-- Generator: Adobe Illustrator 15.0.0, SVG Export Plug-In . SVG Version: 6.00 Build 0)  -->
<!DOCTYPE svg PUBLIC "-//W3C//DTD SVG 1.1//EN" "http://www.w3.org/Graphics/SVG/1.1/DTD/svg11.dtd">
<svg version="1.1" id="Layer_1" xmlns="http://www.w3.org/2000/svg" xmlns:xlink="http://www.w3.org/1999/xlink" x="0px" y="0px"
	 width="39.656px" height="43.685px" viewBox="0 0 39.656 43.685" enable-background="new 0 0 39.656 43.685" xml:space="preserve">
<g>
	<path fill-rule="evenodd" clip-rule="evenodd" d="M21.584,36.401c-0.004,1.297,1.042,2.35,2.34,2.354
		c1.297,0.004,2.35-1.042,2.354-2.339c0.004-1.298-2.332-4.702-2.332-4.702S21.588,35.104,21.584,36.401"/>
	<path fill-rule="evenodd" clip-rule="evenodd" d="M9.562,37.082c0,1.297,1.05,2.347,2.347,2.347c1.297,0,2.347-1.05,2.347-2.347
		s-2.347-4.694-2.347-4.694S9.562,35.785,9.562,37.082"/>
	<path fill-rule="evenodd" clip-rule="evenodd" d="M15.806,41.337c0,1.297,1.05,2.348,2.347,2.348s2.347-1.051,2.347-2.348
		s-2.347-4.693-2.347-4.693S15.806,40.04,15.806,41.337"/>
	
		<line fill="none" stroke="#231F20" stroke-width="1.5" stroke-linecap="round" stroke-linejoin="round" stroke-miterlimit="10" x1="33.896" y1="1.072" x2="32.211" y2="4.28"/>
	
		<line fill="none" stroke="#231F20" stroke-width="1.5" stroke-linecap="round" stroke-linejoin="round" stroke-miterlimit="10" x1="33.671" y1="1.493" x2="31.986" y2="4.701"/>
	
		<line fill="none" stroke="#231F20" stroke-width="1.5" stroke-linecap="round" stroke-linejoin="round" stroke-miterlimit="10" x1="25.525" y1="0.75" x2="26.602" y2="4.21"/>
	
		<line fill="none" stroke="#231F20" stroke-width="1.5" stroke-linecap="round" stroke-linejoin="round" stroke-miterlimit="10" x1="34.955" y1="14.24" x2="38.163" y2="15.925"/>
	<path fill="#231F20" d="M22.446,8.345c-0.105,0-0.213-0.025-0.312-0.077l-3.208-1.686c-0.33-0.173-0.457-0.581-0.284-0.911
		c0.173-0.331,0.581-0.458,0.912-0.284l3.207,1.685c0.33,0.174,0.457,0.582,0.284,0.912C22.923,8.214,22.689,8.345,22.446,8.345"/>
	
		<line fill="none" stroke="#231F20" stroke-width="1.5" stroke-linecap="round" stroke-linejoin="round" stroke-miterlimit="10" x1="35.446" y1="8.856" x2="38.906" y2="7.779"/>
	<path fill="#231F20" d="M23.09,8.748c-0.098,0.359,0.111,0.728,0.47,0.828c0.354,0.098,0.719-0.107,0.824-0.457
		C24.333,9.206,23.03,8.911,23.09,8.748"/>
	<path fill="#231F20" d="M34.01,13.816L34.01,13.816z"/>
	<path fill="#231F20" d="M34.276,13.379c0.01-0.021,0.018-0.036,0.026-0.055c0.01-0.021,0.019-0.041,0.028-0.062
		c0.058-0.123,0.096-0.217,0.115-0.286c0.462-1.191,0.395-2.615,0.004-3.843c-0.488-1.539-1.545-2.794-2.975-3.535
		c-2.955-1.53-6.606-0.372-8.137,2.584c-0.096,0.183-0.176,0.371-0.247,0.562c-0.001,0.001,0,0.002-0.001,0.003
		c-0.098,0.359,0.111,0.729,0.47,0.828c0.359,0.1,0.731-0.11,0.831-0.47c-0.001,0.005-0.004,0.013-0.003,0.012
		c0.041-0.097,0.099-0.219,0.147-0.314c1.189-2.294,4.024-3.194,6.318-2.006c1.11,0.575,1.93,1.55,2.309,2.744
		c0.38,1.196,0.197,2.595-0.378,3.704c-0.002,0.006,0.003,0.01,0.001,0.015c-0.1,0.268-0.03,0.578,0.206,0.764
		c0.292,0.231,0.713,0.181,0.945-0.111c0.001-0.001,0.002-0.001,0.003-0.002h-0.001c0.023-0.03,0.044-0.065,0.067-0.096l0.004,0.001
		c0.009-0.012,0.014-0.026,0.022-0.039C34.122,13.652,34.208,13.516,34.276,13.379"/>
	<path fill="none" stroke="#231F20" stroke-width="1.5" stroke-linecap="round" stroke-linejoin="round" stroke-miterlimit="10" d="
		M7.721,29.336c0.609-0.112,1.178-0.314,1.697-0.591c2.486,2.523,6.138,3.811,9.884,3.12c2.026-0.372,3.812-1.284,5.258-2.547
		c1.649,1.188,3.759,1.731,5.915,1.334c4.201-0.771,6.98-4.805,6.209-9.007c-0.773-4.201-4.807-6.981-9.008-6.208
		c-0.246,0.046-0.486,0.104-0.723,0.171c-2.245-4.026-6.869-6.375-11.654-5.494c-4.153,0.764-7.331,3.756-8.534,7.516
		c-0.388-0.007-0.783,0.023-1.18,0.096c-3.206,0.59-5.327,3.667-4.737,6.872C1.439,27.805,4.515,29.926,7.721,29.336z"/>
</g>
</svg>
