<?xml version="1.0" encoding="utf-8"?>
<!-- Generator: Adobe Illustrator 15.0.0, SVG Export Plug-In . SVG Version: 6.00 Build 0)  -->
<!DOCTYPE svg PUBLIC "-//W3C//DTD SVG 1.1//EN" "http://www.w3.org/Graphics/SVG/1.1/DTD/svg11.dtd">
<svg version="1.1" id="Layer_1" xmlns="http://www.w3.org/2000/svg" xmlns:xlink="http://www.w3.org/1999/xlink" x="0px" y="0px"
	 width="39.687px" height="46.843px" viewBox="0 0 39.687 46.843" enable-background="new 0 0 39.687 46.843" xml:space="preserve">
<g>
	<path fill="none" stroke="#231F20" stroke-width="1.5" stroke-linecap="round" stroke-linejoin="round" stroke-miterlimit="10" d="
		M7.721,31.101c0.609-0.112,1.178-0.314,1.697-0.59c2.486,2.522,6.138,3.81,9.884,3.12c2.026-0.372,3.812-1.284,5.258-2.548
		c1.649,1.188,3.759,1.731,5.915,1.334c4.201-0.771,6.98-4.805,6.209-9.007c-0.773-4.201-4.807-6.981-9.008-6.208
		c-0.246,0.046-0.486,0.104-0.723,0.171c-2.245-4.026-6.869-6.375-11.654-5.494c-4.153,0.764-7.331,3.756-8.534,7.516
		c-0.388-0.007-0.783,0.023-1.18,0.096c-3.206,0.59-5.327,3.667-4.737,6.872C1.438,29.569,4.515,31.69,7.721,31.101z"/>
	<path fill="none" stroke="#000000" stroke-width="1.5" stroke-linecap="round" stroke-linejoin="round" stroke-miterlimit="10" d="
		M36.101,15.23c0.314-0.236,0.616-0.497,0.902-0.783c0.909-0.906,1.534-1.976,1.934-3.109c-2.929,1.037-6.313,0.409-8.654-1.932
		c-2.341-2.343-2.969-5.727-1.933-8.656c-1.133,0.401-2.24,0.992-3.108,1.932c-2.92,3.161-2.318,5.97-2.132,7.717"/>
	<path fill="none" stroke="#000000" stroke-width="1.5" stroke-linecap="round" stroke-linejoin="round" stroke-miterlimit="10" d="
		M34.352,16.233c0.612-0.258,1.2-0.592,1.748-1.003"/>
	<path fill-rule="evenodd" clip-rule="evenodd" d="M21.306,39.56c-0.004,1.297,1.042,2.35,2.34,2.354
		c1.297,0.004,2.351-1.042,2.354-2.339c0.004-1.298-2.332-4.702-2.332-4.702S21.31,38.263,21.306,39.56"/>
	<path fill-rule="evenodd" clip-rule="evenodd" d="M9.283,40.24c0,1.297,1.05,2.347,2.347,2.347s2.347-1.05,2.347-2.347
		s-2.347-4.694-2.347-4.694S9.283,38.943,9.283,40.24"/>
	<path fill-rule="evenodd" clip-rule="evenodd" d="M15.528,44.495c0,1.297,1.05,2.348,2.347,2.348c1.297,0,2.348-1.051,2.348-2.348
		s-2.348-4.693-2.348-4.693S15.528,43.198,15.528,44.495"/>
</g>
</svg>
