<?xml version="1.0" encoding="utf-8"?>
<!-- Generator: Adobe Illustrator 15.0.0, SVG Export Plug-In . SVG Version: 6.00 Build 0)  -->
<!DOCTYPE svg PUBLIC "-//W3C//DTD SVG 1.1//EN" "http://www.w3.org/Graphics/SVG/1.1/DTD/svg11.dtd">
<svg version="1.1" id="Layer_1" xmlns="http://www.w3.org/2000/svg" xmlns:xlink="http://www.w3.org/1999/xlink" x="0px" y="0px"
	 width="40.732px" height="36.354px" viewBox="0 0 40.732 36.354" enable-background="new 0 0 40.732 36.354" xml:space="preserve">
<g>
	<path fill="#FFFFFF" d="M22.304,24.188c0.986-0.45,1.459-0.833,2.256-1.528c1.649,1.187,3.759,1.73,5.916,1.335
		c4.2-0.773,6.979-4.807,6.208-9.007c-0.773-4.202-4.807-6.981-9.008-6.208c-0.246,0.045-0.486,0.104-0.723,0.171
		C24.708,4.924,20.086,2.576,15.3,3.456c-4.153,0.764-7.331,3.757-8.534,7.516c-0.388-0.007-0.783,0.024-1.18,0.097
		c-3.206,0.589-5.327,3.666-4.737,6.872c0.59,3.205,3.666,5.326,6.872,4.736c0.609-0.112,1.178-0.313,1.697-0.589
		c1.047,1.061,1.047,1.061,2.426,1.899"/>
	<path fill="none" stroke="#000000" stroke-width="1.5" stroke-linecap="round" stroke-miterlimit="10" d="M22.304,24.188
		c0.986-0.45,1.459-0.833,2.256-1.528c1.649,1.187,3.759,1.73,5.916,1.335c4.2-0.773,6.979-4.807,6.208-9.007
		c-0.773-4.202-4.807-6.981-9.008-6.208c-0.246,0.045-0.486,0.104-0.723,0.171C24.708,4.924,20.086,2.576,15.3,3.456
		c-4.153,0.764-7.331,3.757-8.534,7.516c-0.388-0.007-0.783,0.024-1.18,0.097c-3.206,0.589-5.327,3.666-4.737,6.872
		c0.59,3.205,3.666,5.326,6.872,4.736c0.609-0.112,1.178-0.313,1.697-0.589c1.047,1.061,1.047,1.061,2.426,1.899"/>
	<path fill="#231F20" d="M35.691,3.493c-0.457,0-0.908,0.062-1.349,0.186C32.951,1.395,30.505,0,27.833,0
		c-1.85,0-3.579,0.678-4.936,1.847c-0.002,0.002,0.001,0.007-0.001,0.009c-0.152,0.124-0.261,0.301-0.261,0.513
		c0,0.376,0.305,0.684,0.681,0.681c0.28-0.002,0.429-0.166,0.491-0.212c0.007-0.008,0.01-0.019,0.018-0.026l0.002,0.001
		c1.108-0.93,2.513-1.463,4.006-1.463c2.358,0,4.504,1.325,5.596,3.458l0.283,0.554l0.575-0.238
		c0.452-0.187,0.925-0.281,1.404-0.281c2.035,0,3.691,1.656,3.691,3.691c0,1.262-0.633,2.387-1.602,3.053
		c-0.167,0.123-0.283,0.312-0.283,0.536c0,0.373,0.303,0.678,0.676,0.676c0.278-0.002,0.425-0.166,0.487-0.211
		c1.251-0.918,2.071-2.387,2.071-4.054C40.732,5.754,38.471,3.493,35.691,3.493"/>
	<polygon fill-rule="evenodd" clip-rule="evenodd" points="16.824,18.085 23.424,18.085 17.845,27.204 21.895,27.204 14.545,36.354 
		16.345,29.904 12.145,29.304 	"/>
</g>
</svg>
