<?xml version="1.0" encoding="utf-8"?>
<!-- Generator: Adobe Illustrator 15.0.0, SVG Export Plug-In . SVG Version: 6.00 Build 0)  -->
<!DOCTYPE svg PUBLIC "-//W3C//DTD SVG 1.1//EN" "http://www.w3.org/Graphics/SVG/1.1/DTD/svg11.dtd">
<svg version="1.1" id="Layer_1" xmlns="http://www.w3.org/2000/svg" xmlns:xlink="http://www.w3.org/1999/xlink" x="0px" y="0px"
	 width="37.562px" height="37.281px" viewBox="0 0 37.562 37.281" enable-background="new 0 0 37.562 37.281" xml:space="preserve">
<line fill="none" stroke="#000000" stroke-width="1.5" stroke-linecap="round" stroke-miterlimit="10" x1="6.165" y1="27.437" x2="31.136" y2="27.437"/>
<line fill="none" stroke="#000000" stroke-width="1.5" stroke-linecap="round" stroke-miterlimit="10" x1="5.742" y1="36.531" x2="23.23" y2="36.531"/>
<line fill="none" stroke="#000000" stroke-width="1.5" stroke-linecap="round" stroke-miterlimit="10" x1="16.866" y1="31.953" x2="34.522" y2="31.953"/>
<line fill="none" stroke="#000000" stroke-width="1.5" stroke-linecap="round" stroke-miterlimit="10" x1="1.625" y1="31.953" x2="11.629" y2="31.953"/>
<line fill="none" stroke="#000000" stroke-width="1.5" stroke-linecap="round" stroke-miterlimit="10" x1="26.619" y1="36.531" x2="33.765" y2="36.531"/>
<g>
	<path fill="none" stroke="#231F20" stroke-width="1.5" stroke-linecap="round" stroke-linejoin="round" stroke-miterlimit="10" d="
		M7.72,20.155c0.609-0.112,1.178-0.313,1.697-0.59c2.486,2.523,6.138,3.81,9.884,3.12c2.026-0.372,3.812-1.284,5.258-2.547
		c1.65,1.187,3.759,1.73,5.915,1.334c4.202-0.772,6.981-4.805,6.209-9.007c-0.772-4.201-4.806-6.981-9.007-6.208
		c-0.247,0.046-0.487,0.104-0.723,0.171c-2.245-4.026-6.869-6.375-11.654-5.494C11.146,1.698,7.968,4.69,6.765,8.45
		c-0.388-0.007-0.783,0.023-1.18,0.096c-3.206,0.59-5.327,3.667-4.737,6.872C1.438,18.625,4.514,20.745,7.72,20.155z"/>
</g>
</svg>
