<?xml version="1.0" encoding="utf-8"?>
<!-- Generator: Adobe Illustrator 16.0.0, SVG Export Plug-In . SVG Version: 6.00 Build 0)  -->
<!DOCTYPE svg PUBLIC "-//W3C//DTD SVG 1.1//EN" "http://www.w3.org/Graphics/SVG/1.1/DTD/svg11.dtd">
<svg version="1.1" id="Layer_1" xmlns="http://www.w3.org/2000/svg" xmlns:xlink="http://www.w3.org/1999/xlink" x="0px" y="0px"
	 width="498.182px" height="507.273px" viewBox="0 0 498.182 507.273" enable-background="new 0 0 498.182 507.273"
	 xml:space="preserve">
<g id="Layer_1_1_">
	<g id="XMLID_82_">
		<path id="XMLID_84_" d="M274.545,212.729c32.728,0,67.272,0,100,0c7.272,0,14.545,1.817,18.183,9.091
			c5.453,10.909-1.818,23.637-16.365,25.455h-1.817c-67.272,0-134.545,0-200,0c-9.091,0-16.363-3.638-18.182-10.91
			c-3.637-9.09,1.818-20,12.728-21.818c1.818,0,5.454,0,7.272,0C209.091,212.729,241.818,212.729,274.545,212.729z"/>
		<path id="XMLID_83_" d="M256.364,332.729c-27.272,0-56.364,0-83.636,0c-10.909,0-18.182-5.454-18.182-14.547
			c0-10.907,5.455-18.182,16.364-18.182h1.818c56.364,0,110.91,0,167.273,0c9.091,0,14.545,3.637,18.182,10.91
			c3.637,9.09-1.817,20-10.908,21.817c-1.818,0-5.455,0-9.092,0C312.728,332.729,285.455,332.729,256.364,332.729z"/>
	</g>
	<path d="M445.455,60c0,0-138.183,0-250.909,0c-16.364-36.363-50.909-60-92.728-60C45.455,0,0,45.455,0,101.818
		C0,140,20,172.727,50.909,190.909c0,81.817,0,156.364,0,240.001c0,12.727,1.818,25.454,3.636,30.908
		c9.091,25.455,38.182,45.455,58.182,45.455c78.182,0,156.364,0,234.545,0c20-7.272,32.727-20,47.272-34.545
		c25.454-25.455,50.909-50.909,76.364-78.183c9.091-10.91,20-20,25.455-34.546c0-1.817,1.816-3.636,1.816-5.454
		c0-78.182,0-156.363,0-234.545C498.182,60,445.455,60,445.455,60z M43.636,101.818c0-7.272,3.637-10.909,10.909-10.909H89.09
		V56.364c0-7.272,3.637-10.909,10.909-10.909s10.909,3.637,10.909,10.909v34.545h34.545c7.272,0,10.909,3.637,10.909,10.909
		s-3.637,10.908-10.909,10.908h-34.545v34.547c0,7.271-3.637,10.907-10.909,10.907s-10.909-3.636-10.909-9.09v-36.364H54.545
		C47.273,112.729,43.636,107.273,43.636,101.818z M449.091,347.273c0,9.091-5.455,14.545-18.182,14.545c-9.091,0-47.271,0-60,0
		s-18.182,5.453-18.182,18.182c0,20,0,40,0,60c0,3.637,1.817,18.182-14.545,18.182c-67.273,0-134.546,0-203.638,0
		c-16.363,0-29.091-9.091-32.727-23.637c0-3.636-1.818-143.636-1.818-230.908h1.818c52.727,0,96.363-41.817,101.818-92.729
		c34.545,0,70.909,0,107.272,0c34.545,0,69.091,0,103.637,0c7.272,0,14.545,1.817,21.818,7.272
		c9.091,7.272,12.728,16.363,12.728,27.272C449.091,212.729,449.091,280,449.091,347.273z"/>
</g>
</svg>
