<?xml version="1.0" encoding="utf-8"?>
<!-- Generator: Adobe Illustrator 16.0.0, SVG Export Plug-In . SVG Version: 6.00 Build 0)  -->
<!DOCTYPE svg PUBLIC "-//W3C//DTD SVG 1.1//EN" "http://www.w3.org/Graphics/SVG/1.1/DTD/svg11.dtd">
<svg version="1.1" id="Layer_1" xmlns="http://www.w3.org/2000/svg" xmlns:xlink="http://www.w3.org/1999/xlink" x="0px" y="0px"
	 width="487.32px" height="534.54px" viewBox="0 0 487.32 534.54" enable-background="new 0 0 487.32 534.54" xml:space="preserve">
<g id="Layer_1_1_">
	<g>
		<path d="M178.183,365.455h-34.545c-3.637,0-7.272,3.637-7.272,7.271v34.546c0,3.638,3.636,7.272,7.272,7.272h34.545
			c3.637,0,7.272-3.637,7.272-7.272v-34.546C183.637,367.272,181.819,365.455,178.183,365.455z"/>
		<path d="M261.819,365.455h-34.545c-3.636,0-7.272,3.637-7.272,7.271v34.546c0,3.638,3.637,7.272,7.272,7.272h34.545
			c3.637,0,7.271-3.637,7.271-7.272v-34.546C269.092,367.272,265.455,365.455,261.819,365.455z"/>
		<path d="M347.272,365.455h-34.545c-3.638,0-7.272,3.637-7.272,7.271v34.546c0,3.638,3.637,7.272,7.272,7.272h34.545
			c3.637,0,7.271-3.637,7.271-7.272v-34.546C354.546,367.272,350.91,365.455,347.272,365.455z"/>
		<path d="M178.183,278.183h-34.545c-3.637,0-7.272,3.639-7.272,7.272v34.546c0,3.637,3.636,7.271,7.272,7.271h34.545
			c3.637,0,7.272-3.638,7.272-7.271v-34.546C183.637,281.819,181.819,278.183,178.183,278.183z"/>
		<path d="M261.819,278.183h-34.545c-3.636,0-7.272,3.639-7.272,7.272v34.546c0,3.637,3.637,7.271,7.272,7.271h34.545
			c3.637,0,7.271-3.638,7.271-7.271v-34.546C269.092,281.819,265.455,278.183,261.819,278.183z"/>
		<path d="M347.272,278.183h-34.545c-3.638,0-7.272,3.639-7.272,7.272v34.546c0,3.637,3.637,7.271,7.272,7.271h34.545
			c3.637,0,7.271-3.638,7.271-7.271v-34.546C354.546,281.819,350.91,278.183,347.272,278.183z"/>
		<path d="M178.183,192.728h-34.545c-3.637,0-7.272,3.638-7.272,7.273v34.545c0,3.637,3.636,7.272,7.272,7.272h34.545
			c3.637,0,7.272-3.638,7.272-7.272v-36.363C183.637,194.546,181.819,192.728,178.183,192.728z"/>
		<path d="M261.819,192.728h-34.545c-3.636,0-7.272,3.638-7.272,7.273v34.545c0,3.637,3.637,7.272,7.272,7.272h34.545
			c3.637,0,7.271-3.638,7.271-7.272v-36.363C269.092,194.546,265.455,192.728,261.819,192.728z"/>
		<path d="M347.272,192.728h-34.545c-3.638,0-7.272,3.638-7.272,7.273v34.545c0,3.637,3.637,7.272,7.272,7.272h34.545
			c3.637,0,7.271-3.638,7.271-7.272v-36.363C354.546,194.546,350.91,192.728,347.272,192.728z"/>
	</g>
	<path d="M416.364,67.272c0,0-30.909,0-72.727,0V32.727c0-7.271-5.455-12.727-12.729-12.727c-7.271,0-12.729,5.454-12.729,12.727
		v34.546c-20,0-40,0-61.818,0V32.727c0-7.271-5.454-12.727-12.728-12.727c-7.272,0-12.728,5.454-12.728,12.727v34.546
		c-21.818,0-41.818,0-60,0V32.727c0-7.271-5.454-12.727-12.728-12.727c-7.272,0-12.727,5.454-12.727,12.727v34.546
		c-34.545,0-58.182,0-63.637,0C20,67.272,20,120.001,20,120.001s0,254.545,0,332.727c0,61.818,52.727,61.818,52.727,61.818
		s310.909,0,332.727,0c61.817,0,61.817-52.728,61.817-52.728s0-254.546,0-332.729C469.092,67.272,416.364,67.272,416.364,67.272z
		 M394.546,463.637H98.183c-14.545,0-25.455-10.909-25.455-25.454V141.819c0-14.545,10.909-25.455,25.455-25.455h47.273v21.817
		c0,7.273,5.454,12.729,12.728,12.729c7.272,0,12.728-5.455,12.728-12.729v-21.817h60v21.817c0,7.273,5.455,12.729,12.728,12.729
		s12.729-5.455,12.729-12.729v-21.817h61.818v21.817c0,7.273,5.455,12.729,12.728,12.729s12.728-5.455,12.728-12.729v-21.817h54.545
		c14.545,0,25.455,10.91,25.455,25.455v296.362C423.638,438.183,425.456,463.637,394.546,463.637z"/>
</g>
</svg>
