<?xml version="1.0" encoding="utf-8"?>
<!-- Generator: Adobe Illustrator 16.0.0, SVG Export Plug-In . SVG Version: 6.00 Build 0)  -->
<!DOCTYPE svg PUBLIC "-//W3C//DTD SVG 1.1//EN" "http://www.w3.org/Graphics/SVG/1.1/DTD/svg11.dtd">
<svg version="1.1" id="Layer_1" xmlns="http://www.w3.org/2000/svg" xmlns:xlink="http://www.w3.org/1999/xlink" x="0px" y="0px"
	 width="448.182px" height="447.273px" viewBox="0 0 448.182 447.273" enable-background="new 0 0 448.182 447.273"
	 xml:space="preserve">
<path d="M396.363,203.639c0,52.726,0,105.453,0,160c0,16.361-9.092,29.09-23.637,32.727c-3.635,1.818-241.817,1.818-289.089,1.818
	c-7.273,0-14.545-1.818-21.819-7.273c-9.091-7.271-12.727-16.361-12.727-29.09c0-58.184,0-116.365,0-174.546
	c0-34.545,0-69.09,0-103.637c0-7.271,1.818-14.545,7.272-21.818c7.272-9.09,16.363-12.727,27.272-12.727
	c54.545,0,109.091,0,163.637,0L296.363,0c0,0,0,0-1.818,0C216.364,0,138.181,0,60,0C0,0,0,52.727,0,52.727s0,225.455,0,332.728
	c1.818,12.729,1.818,12.729,3.637,16.363c9.091,25.453,27.272,40,54.545,45.455c1.818,0,1.818,0,3.637,0
	c107.272,0,201.818,0,309.091,0c12.729,0,25.454-1.818,30.909-3.637c25.454-9.092,45.454-38.184,45.454-58.184
	c0-78.182,0-154.545,0-232.726L396.363,203.639z"/>
<polygon points="230.909,303.638 110.909,332.728 147.272,212.729 "/>
<path d="M234.545,272.728l-56.364-56.363c-3.637-3.637-3.637-7.271,0-10.91l200-200c3.637-3.637,7.271-3.637,10.908,0l56.364,56.365
	c3.638,3.635,3.638,7.271,0,10.908l-200,200C241.817,274.546,236.363,274.546,234.545,272.728z"/>
</svg>
