<?xml version="1.0" encoding="utf-8"?>
<!-- Generator: Adobe Illustrator 16.0.0, SVG Export Plug-In . SVG Version: 6.00 Build 0)  -->
<!DOCTYPE svg PUBLIC "-//W3C//DTD SVG 1.1//EN" "http://www.w3.org/Graphics/SVG/1.1/DTD/svg11.dtd">
<svg version="1.1" id="Layer_1" xmlns="http://www.w3.org/2000/svg" xmlns:xlink="http://www.w3.org/1999/xlink" x="0px" y="0px"
	 width="25.584px" height="27.51px" viewBox="0 0 25.584 27.51" enable-background="new 0 0 25.584 27.51" xml:space="preserve">
<g>
	<path fill="#231F20" d="M20.957,1.42h0.438c0.192,0.102,0.352,0.242,0.504,0.397c0.213,0.22,0.438,0.428,0.657,0.641
		c0.015,0.043,0.043,0.071,0.086,0.087c0.118,0.147,0.252,0.28,0.399,0.398c0.016,0.043,0.045,0.072,0.088,0.087
		c0.117,0.148,0.251,0.281,0.398,0.399c0.016,0.043,0.045,0.072,0.088,0.087c0.117,0.148,0.25,0.281,0.399,0.399
		c0.015,0.043,0.044,0.071,0.087,0.087c0.118,0.147,0.251,0.28,0.398,0.397c0.016,0.043,0.046,0.073,0.089,0.088
		c0.128,0.135,0.253,0.271,0.385,0.402c0.247,0.245,0.274,0.533,0.177,0.849c-0.06,0.193-0.193,0.332-0.332,0.471
		C21.3,9.729,17.781,13.25,14.261,16.767c-0.062,0.061-0.104,0.15-0.206,0.158c-0.032-0.033-0.064-0.066-0.098-0.098
		c-0.098-0.127-0.209-0.238-0.336-0.338c-0.035-0.062-0.086-0.111-0.149-0.148c-0.099-0.127-0.21-0.238-0.337-0.336
		c-0.035-0.064-0.085-0.115-0.148-0.15c-0.099-0.127-0.21-0.238-0.337-0.338c-0.036-0.062-0.085-0.113-0.149-0.148
		c-0.098-0.127-0.21-0.238-0.337-0.338c-0.036-0.062-0.085-0.113-0.149-0.148c-0.098-0.127-0.211-0.238-0.337-0.336
		c-0.036-0.064-0.086-0.115-0.149-0.15c-0.098-0.127-0.211-0.239-0.337-0.336c-0.036-0.063-0.086-0.114-0.149-0.15
		c-0.099-0.126-0.211-0.237-0.337-0.337c-0.036-0.062-0.086-0.112-0.15-0.148c-0.098-0.127-0.21-0.239-0.336-0.337
		c-0.036-0.064-0.086-0.113-0.15-0.15c-0.065-0.071-0.12-0.156-0.197-0.21c-0.202-0.142-0.153-0.242,0.005-0.399
		c1.891-1.879,3.774-3.766,5.659-5.65c1.697-1.695,3.394-3.388,5.09-5.082C20.736,1.536,20.847,1.478,20.957,1.42"/>
	<path fill="#231F20" d="M12.883,17.903c0.035,0.064,0.083,0.113,0.147,0.148c0.009,0.051,0.138,0.113-0.021,0.146
		c-0.108,0.023-0.212,0.064-0.318,0.098c-0.121-0.004-0.232,0.033-0.34,0.082c-0.33,0.061-0.657,0.137-0.974,0.248
		c-0.123-0.006-0.234,0.041-0.348,0.072c-0.305,0.078-0.61,0.156-0.915,0.234c-0.116,0.02-0.235,0.031-0.341,0.09
		c-0.329,0.061-0.655,0.137-0.972,0.246c-0.121-0.002-0.232,0.033-0.34,0.082c-0.33,0.061-0.657,0.135-0.974,0.248
		c-0.117-0.01-0.222,0.041-0.332,0.068c-0.26,0.059-0.259,0.059-0.2-0.195c0.016-0.068,0.028-0.139,0.042-0.207
		c0.043-0.092,0.064-0.188,0.067-0.287c0.084-0.326,0.168-0.652,0.253-0.98c0.035-0.109,0.082-0.217,0.073-0.338
		c0.111-0.316,0.188-0.641,0.246-0.971c0.059-0.107,0.075-0.225,0.089-0.342c0.081-0.324,0.163-0.648,0.244-0.973
		c0.044-0.09,0.065-0.186,0.067-0.287c0.085-0.324,0.169-0.652,0.253-0.979c0.035-0.11,0.083-0.218,0.074-0.338
		c0.019-0.059,0.041-0.116,0.058-0.175c0.023-0.084,0.069-0.068,0.121-0.031c0.136,0.164,0.286,0.314,0.451,0.45
		c0.035,0.062,0.084,0.112,0.147,0.146c0.099,0.127,0.212,0.241,0.339,0.338c0.035,0.064,0.084,0.113,0.148,0.148
		c0.098,0.127,0.211,0.24,0.339,0.34c0.034,0.062,0.083,0.111,0.147,0.146c0.098,0.127,0.211,0.24,0.339,0.34
		c0.034,0.062,0.084,0.111,0.147,0.146c0.098,0.127,0.211,0.24,0.339,0.338c0.035,0.064,0.084,0.113,0.147,0.148
		c0.099,0.127,0.212,0.24,0.339,0.338c0.035,0.064,0.084,0.113,0.148,0.148c0.098,0.127,0.211,0.24,0.338,0.338
		c0.035,0.064,0.084,0.113,0.148,0.148c0.098,0.127,0.211,0.24,0.339,0.338c0.034,0.064,0.084,0.113,0.147,0.148
		C12.643,17.692,12.755,17.806,12.883,17.903"/>
	<path fill="#231F20" d="M22.26,12.663c0,2.922,0,5.844-0.002,8.766c-0.001,0.945-0.48,1.613-1.333,1.838
		c-0.194,0.051-13.332,0.066-15.88,0.066c-0.435,0-0.845-0.086-1.2-0.357c-0.515-0.395-0.709-0.93-0.709-1.559
		c0.002-3.203,0.001-6.406,0.001-9.609c0-1.895,0-3.79,0.001-5.685c0-0.436,0.084-0.846,0.355-1.201
		c0.37-0.485,0.872-0.708,1.47-0.708c3.014-0.003,6.029-0.002,9.043,0l2.736-2.737c-0.016-0.007-0.034-0.014-0.051-0.021H3.797
		c-3.379,0-3.395,2.901-3.395,2.901S0.381,16.739,0.381,22.673c0.13,0.611,0.13,0.611,0.24,0.896
		c0.533,1.398,1.547,2.217,3.02,2.471c0.053,0.008,0.104,0.031,0.156,0.049h17.012c0.702,0,1.399-0.129,1.688-0.24
		c1.396-0.533,2.518-2.084,2.518-3.176V9.909L22.26,12.663z"/>
</g>
</svg>
