<?xml version="1.0" encoding="utf-8"?>
<!-- Generator: Adobe Illustrator 16.0.0, SVG Export Plug-In . SVG Version: 6.00 Build 0)  -->
<!DOCTYPE svg PUBLIC "-//W3C//DTD SVG 1.1//EN" "http://www.w3.org/Graphics/SVG/1.1/DTD/svg11.dtd">
<svg version="1.1" id="Layer_1" xmlns="http://www.w3.org/2000/svg" xmlns:xlink="http://www.w3.org/1999/xlink" x="0px" y="0px"
	 width="448px" height="493px" viewBox="-255.841 527.772 448 493" enable-background="new -255.841 527.772 448 493"
	 xml:space="preserve">
<g id="Layer_1_1_">
	<g>
		<path d="M-97.414,872.146h-34.598c-3.643,0-7.284,3.626-7.284,7.249v34.438c0,3.626,3.642,7.25,7.284,7.25h34.597
			c3.642,0,7.284-3.627,7.284-7.25v-34.438C-91.951,873.96-93.771,872.146-97.414,872.146z"/>
		<path d="M-13.649,872.146h-34.599c-3.642,0-7.283,3.626-7.283,7.249v34.438c0,3.626,3.642,7.25,7.283,7.25h34.599
			c3.643,0,7.282-3.627,7.282-7.25v-34.438C-6.366,873.96-10.009,872.146-13.649,872.146z"/>
		<path d="M71.936,872.146H37.339c-3.645,0-7.284,3.626-7.284,7.249v34.438c0,3.626,3.642,7.25,7.284,7.25h34.597
			c3.641,0,7.282-3.627,7.282-7.25v-34.438C79.219,873.96,75.577,872.146,71.936,872.146z"/>
		<path d="M-97.414,785.146h-34.598c-3.643,0-7.284,3.626-7.284,7.249v34.439c0,3.625,3.642,7.247,7.284,7.247h34.597
			c3.642,0,7.284-3.626,7.284-7.247v-34.439C-91.951,788.772-93.771,785.146-97.414,785.146z"/>
		<path d="M-13.649,785.146h-34.599c-3.642,0-7.283,3.626-7.283,7.249v34.439c0,3.625,3.642,7.247,7.283,7.247h34.599
			c3.643,0,7.282-3.626,7.282-7.247v-34.439C-6.366,788.772-10.009,785.146-13.649,785.146z"/>
		<path d="M71.936,785.146H37.339c-3.645,0-7.284,3.626-7.284,7.249v34.439c0,3.625,3.642,7.247,7.284,7.247h34.597
			c3.641,0,7.282-3.626,7.282-7.247v-34.439C79.219,788.772,75.577,785.146,71.936,785.146z"/>
		<path d="M-97.414,699.96h-34.598c-3.643,0-7.284,3.625-7.284,7.249v34.438c0,3.625,3.642,7.246,7.284,7.246h34.597
			c3.642,0,7.284-3.625,7.284-7.246v-36.25C-91.951,701.771-93.771,699.96-97.414,699.96z"/>
		<path d="M-13.649,699.96h-34.599c-3.642,0-7.283,3.625-7.283,7.249v34.438c0,3.625,3.642,7.246,7.283,7.246h34.599
			c3.643,0,7.282-3.625,7.282-7.246v-36.25C-6.366,701.771-10.009,699.96-13.649,699.96z"/>
		<path d="M71.936,699.96H37.339c-3.645,0-7.284,3.625-7.284,7.249v34.438c0,3.625,3.642,7.246,7.284,7.246h34.597
			c3.641,0,7.282-3.625,7.282-7.246v-36.25C79.219,701.771,75.577,699.96,71.936,699.96z"/>
	</g>
	<path d="M141.132,574.896c0,0-30.957,0-72.84,0v-34.438c0-7.247-5.461-12.687-12.746-12.687c-7.285,0-12.749,5.438-12.749,12.687
		v34.439c-20.03,0-40.061,0-61.912,0v-34.439c0-7.247-5.463-12.687-12.747-12.687c-7.283,0-12.748,5.438-12.748,12.687v34.439
		c-21.851,0-41.883,0-60.092,0v-34.439c0-7.247-5.462-12.687-12.747-12.687c-7.283,0-12.747,5.438-12.747,12.687v34.439
		c-34.597,0-58.271,0-63.734,0c-61.913-0.002-61.913,52.562-61.913,52.562s0,253.75,0,331.688c0,61.625,52.808,61.625,52.808,61.625
		s311.382,0,333.234,0c61.912,0,61.912-52.563,61.912-52.563s0-253.752,0-331.689C193.939,574.896,141.132,574.896,141.132,574.896z
		 M119.28,970.022h-296.815c-14.567,0-25.494-10.876-25.494-25.375V649.21c0-14.499,10.926-25.375,25.494-25.375h47.345v21.75
		c0,7.25,5.462,12.688,12.748,12.688c7.282,0,12.747-5.437,12.747-12.688v-21.75h60.092v21.75c0,7.25,5.463,12.688,12.748,12.688
		c7.283,0,12.747-5.437,12.747-12.688v-21.75h61.912v21.75c0,7.25,5.463,12.688,12.748,12.688c7.285,0,12.748-5.437,12.748-12.688
		v-21.75h54.628c14.567,0,25.494,10.876,25.494,25.375v295.438C148.414,944.647,150.237,970.022,119.28,970.022z"/>
</g>
</svg>
