<?xml version="1.0" encoding="utf-8"?>
<!-- Generator: Adobe Illustrator 16.0.0, SVG Export Plug-In . SVG Version: 6.00 Build 0)  -->
<!DOCTYPE svg PUBLIC "-//W3C//DTD SVG 1.1//EN" "http://www.w3.org/Graphics/SVG/1.1/DTD/svg11.dtd">
<svg version="1.1" id="Layer_1" xmlns="http://www.w3.org/2000/svg" xmlns:xlink="http://www.w3.org/1999/xlink" x="0px" y="0px"
	 width="26.405px" height="26.523px" viewBox="-0.411 0.493 26.405 26.523" enable-background="new -0.411 0.493 26.405 26.523"
	 xml:space="preserve">
<g>
	<path fill="#231F20" d="M22.268,19.017c-0.469,0.03-2.645,0.032-3.262,0.035c-0.65,0.004-0.971,0.325-0.978,0.978
		c-0.009,1.079-0.013,2.191-0.028,3.271c-0.002,0.165,0.113,0.963-0.807,0.963c-3.724-0.001-7.448-0.001-11.172-0.003
		c-0.945,0-1.614-0.48-1.837-1.333C4.134,22.733,4.118,9.596,4.118,7.048c0.001-0.435,0.086-0.845,0.358-1.2
		C4.87,5.333,5.406,5.139,6.035,5.14c3.203,0.001,6.405,0,9.608,0c1.895,0,3.79,0,5.686,0.001c0.435,0,0.844,0.084,1.199,0.355
		c0.486,0.37,0.708,0.872,0.709,1.47c0.004,3.702,0.004,7.404,0,11.106C23.236,18.682,22.939,18.974,22.268,19.017 M23.093,2.405
		c0,0-12.381-0.021-18.315-0.021c-0.61,0.13-0.61,0.13-0.897,0.24c-1.397,0.533-2.216,1.547-2.469,3.02
		C1.402,5.697,1.378,5.748,1.361,5.8v17.011c0,0.703,0.13,1.4,0.24,1.688c0.533,1.396,2.085,2.518,3.176,2.518h12.895
		c1.059-0.36,1.83-1.125,2.598-1.883c1.425-1.408,2.837-2.829,4.239-4.26c0.544-0.554,1.061-1.138,1.362-1.874
		c0.041-0.103,0.082-0.204,0.123-0.306V5.8C25.994,2.421,23.093,2.405,23.093,2.405"/>
	<path fill="#231F20" d="M13.689,9.976c1.843,0,3.687,0.003,5.529-0.002c0.426-0.001,0.778,0.124,0.971,0.526
		c0.31,0.647-0.109,1.299-0.858,1.353c-0.048,0.003-0.097,0.001-0.146,0.001c-3.678,0-7.356,0.001-11.035,0
		c-0.523,0-0.856-0.2-1.018-0.607c-0.211-0.531,0.108-1.131,0.668-1.239c0.14-0.027,0.286-0.03,0.43-0.03
		C10.051,9.975,11.87,9.976,13.689,9.976"/>
	<path fill="#231F20" d="M12.691,16.582c-1.531,0-3.062,0.002-4.594-0.001c-0.583-0.001-0.98-0.332-1.022-0.835
		c-0.047-0.578,0.333-0.995,0.944-1.038c0.04-0.002,0.08-0.001,0.12-0.001c3.063,0,6.126-0.001,9.188,0
		c0.518,0,0.845,0.204,1.009,0.621c0.194,0.495-0.104,1.086-0.623,1.209c-0.146,0.035-0.302,0.043-0.452,0.043
		C15.738,16.583,14.215,16.582,12.691,16.582"/>
	<path fill="#231F20" d="M7.425,2.03C6.603,1.096,5.412,0.493,4.073,0.493c-2.473,0-4.484,2.012-4.484,4.484
		c0,1.334,0.598,2.521,1.526,3.343c0.791,0.701,1.82,1.141,2.958,1.141c0.61,0,1.192-0.124,1.723-0.347
		c1.173-0.49,2.078-1.473,2.497-2.682c0.159-0.459,0.263-0.943,0.263-1.455C8.556,3.845,8.12,2.82,7.425,2.03"/>
	<path fill="#FFFFFF" d="M3.626,2.919v0.525v1.106H2.521H1.995c-0.255,0-0.461,0.207-0.462,0.462c0,0.254,0.207,0.461,0.462,0.461
		h0.525h1.106v1.105v0.525c0,0.255,0.207,0.461,0.461,0.461c0.255,0,0.462-0.206,0.462-0.461V6.579V5.474h1.106H6.18
		c0.255,0,0.461-0.207,0.461-0.461c0-0.255-0.206-0.462-0.461-0.462H5.655H4.549V3.444V2.919c0-0.255-0.207-0.461-0.462-0.461
		C3.833,2.458,3.626,2.664,3.626,2.919"/>
</g>
</svg>
