<?xml version="1.0" encoding="utf-8"?>
<!-- Generator: Adobe Illustrator 15.0.0, SVG Export Plug-In . SVG Version: 6.00 Build 0)  -->
<!DOCTYPE svg PUBLIC "-//W3C//DTD SVG 1.1//EN" "http://www.w3.org/Graphics/SVG/1.1/DTD/svg11.dtd">
<svg version="1.1" id="Layer_1" xmlns="http://www.w3.org/2000/svg" xmlns:xlink="http://www.w3.org/1999/xlink" x="0px" y="0px"
	 width="25.584px" height="27.51px" viewBox="0 0 25.584 27.51" enable-background="new 0 0 25.584 27.51" xml:space="preserve">
<g>
	<path d="M19.275,0.953v0.602v1.89v1.537c0,0.526,0.427,0.953,0.953,0.953s0.952-0.427,0.952-0.953V3.444v-1.89V0.953
		C21.181,0.427,20.754,0,20.229,0C19.702,0,19.275,0.427,19.275,0.953"/>
	<path d="M11.816,0.953v0.602v1.89v1.537c0,0.526,0.428,0.953,0.953,0.953c0.527,0,0.953-0.427,0.953-0.953V3.444v-1.89V0.953
		C13.723,0.427,13.296,0,12.77,0C12.244,0,11.816,0.427,11.816,0.953"/>
	<path d="M4.483,0.953v0.602v1.89v1.537c0,0.526,0.427,0.953,0.953,0.953c0.527,0,0.953-0.427,0.953-0.953V3.444v-1.89V0.953
		C6.39,0.427,5.962,0,5.437,0S4.483,0.427,4.483,0.953"/>
	<path d="M23.034,2.546h-0.978v0.143v2.664c0,0.912-0.828,1.651-1.85,1.651c-1.023,0-1.853-0.739-1.853-1.651V2.688V2.546h-3.712
		v0.143v2.664c0,0.912-0.828,1.651-1.851,1.651S10.94,6.265,10.94,5.353V2.688V2.546H7.274v0.143v2.664
		c0,0.912-0.829,1.651-1.851,1.651S3.571,6.265,3.571,5.353V2.688V2.546H2.55C1.142,2.546,0,3.688,0,5.096v19.865
		c0,1.408,1.142,2.549,2.55,2.549h20.484c1.407,0,2.55-1.141,2.55-2.549V5.096C25.584,3.688,24.441,2.546,23.034,2.546
		 M23.71,15.102v3.424v5.961c0,0.439-0.357,0.796-0.797,0.796h-9.974c-0.051,0-0.1-0.006-0.147-0.016
		c-0.048,0.01-0.097,0.016-0.147,0.016H2.671c-0.44,0-0.797-0.356-0.797-0.796v-5.961v-3.424V9.141c0-0.439,0.357-0.796,0.797-0.796
		h9.974c0.051,0,0.1,0.006,0.147,0.016c0.048-0.01,0.097-0.016,0.147-0.016h9.974c0.439,0,0.797,0.356,0.797,0.796V15.102z"/>
</g>
</svg>
