<?xml version="1.0" encoding="utf-8"?>
<!-- Generator: Adobe Illustrator 16.0.0, SVG Export Plug-In . SVG Version: 6.00 Build 0)  -->
<!DOCTYPE svg PUBLIC "-//W3C//DTD SVG 1.1//EN" "http://www.w3.org/Graphics/SVG/1.1/DTD/svg11.dtd">
<svg version="1.1" id="Layer_1" xmlns="http://www.w3.org/2000/svg" xmlns:xlink="http://www.w3.org/1999/xlink" x="0px" y="0px"
	 width="111px" height="31.524px" viewBox="318.035 90.321 111 31.524" enable-background="new 318.035 90.321 111 31.524"
	 xml:space="preserve">
<g>
	<path fill="#FFFFFF" d="M322.034,113.437v8.408h-3.999V95.319h3.999v9.456l4.886-9.456h4.263l-5.472,10.82l6.417,15.707h-4.7
		l-4.198-10.77L322.034,113.437z"/>
	<path fill="#FFFFFF" d="M347.277,121.845h-10.894V95.34h3.998v22.529h6.896V121.845z"/>
	<path fill="#FFFFFF" d="M351.814,121.845V95.319h11.381v4.019h-7.383v7.234h5.395v4.019h-5.395v7.234h7.383v4.02H351.814
		L351.814,121.845z"/>
	<path fill="#FFFFFF" d="M374.035,95.34c2.229,0,3.864,0.613,4.908,1.84c0.916,1.072,1.374,2.567,1.374,4.485v3.85
		c0,1.876-0.712,3.462-2.136,4.76l2.961,11.57h-4.323l-2.425-9.984c-0.112,0-0.232,0-0.359,0h-2.305v9.984h-3.999V95.34H374.035
		L374.035,95.34z M376.426,101.728c0-1.537-0.762-2.306-2.285-2.306h-2.411v8.483h2.411c0.635,0,1.174-0.227,1.619-0.678
		c0.444-0.45,0.666-0.994,0.666-1.629V101.728z"/>
	<path fill="#FFFFFF" d="M384.829,121.845v-4.02h7.383v-7.234h-5.394v-4.019h5.394v-7.234h-7.383v-4.019h11.381v26.526H384.829
		L384.829,121.845z"/>
	<path fill="#FFFFFF" d="M413.503,115.5c0,1.749-0.614,3.244-1.841,4.484c-1.227,1.241-2.707,1.861-4.442,1.861h-6.282V95.319h6.282
		c1.749,0,3.233,0.621,4.453,1.861c1.22,1.241,1.83,2.729,1.83,4.463V115.5z M404.936,117.889h2.411
		c0.635,0,1.171-0.229,1.608-0.688c0.437-0.458,0.655-0.997,0.655-1.618v-13.876c0-0.635-0.222-1.178-0.666-1.629
		c-0.444-0.451-0.977-0.677-1.598-0.677h-2.411V117.889z"/>
	<path fill="#FFFFFF" d="M417.654,121.845V95.319h11.381v4.019h-7.383v7.234h5.395v4.019h-5.395v7.234h7.383v4.02H417.654
		L417.654,121.845z"/>
	<rect x="417.42" y="90.321" fill="#FFFFFF" width="11.583" height="2.442"/>
</g>
</svg>
