<?xml version="1.0" encoding="utf-8"?>
<!-- Generator: Adobe Illustrator 15.0.0, SVG Export Plug-In . SVG Version: 6.00 Build 0)  -->
<!DOCTYPE svg PUBLIC "-//W3C//DTD SVG 1.1//EN" "http://www.w3.org/Graphics/SVG/1.1/DTD/svg11.dtd">
<svg version="1.1" id="Layer_1" xmlns="http://www.w3.org/2000/svg" xmlns:xlink="http://www.w3.org/1999/xlink" x="0px" y="0px"
	 width="747.07px" height="212.167px" viewBox="23.397 188.611 747.07 212.167"
	 enable-background="new 23.397 188.611 747.07 212.167" xml:space="preserve">
<g>
	<path fill="#FFFFFF" d="M50.306,344.186v56.592H23.397V222.245h26.909v63.64l32.888-63.64h28.687l-36.828,72.82l43.188,105.712
		H86.612l-28.255-72.483L50.306,344.186z"/>
	<path fill="#FFFFFF" d="M220.206,400.777h-73.319v-178.39h26.909v151.624h46.41V400.777z"/>
	<path fill="#FFFFFF" d="M250.739,400.777V222.245h76.597v27.05h-49.688v48.691h36.306v27.05h-36.306v48.691h49.688v27.05H250.739z"
		/>
	<path fill="#FFFFFF" d="M400.295,222.388c14.998,0,26.006,4.128,33.033,12.386c6.169,7.213,9.251,17.277,9.251,30.182v25.913
		c0,12.624-4.794,23.3-14.376,32.032l19.928,77.877h-29.099l-16.318-67.198c-0.758,0-1.565,0-2.419,0h-15.516v67.198H357.87v-178.39
		H400.295z M416.382,265.382c0-10.343-5.124-15.518-15.374-15.518h-16.229v57.092h16.229c4.271,0,7.9-1.519,10.892-4.558
		c2.992-3.034,4.482-6.691,4.482-10.963V265.382z"/>
	<path fill="#FFFFFF" d="M472.941,400.777v-27.05h49.688v-48.691h-36.301v-27.05h36.301v-48.691h-49.688v-27.05h76.598v178.533
		H472.941z"/>
	<path fill="#FFFFFF" d="M665.926,358.066c0,11.771-4.131,21.833-12.388,30.183c-8.258,8.353-18.221,12.528-29.896,12.528h-42.284
		V222.245h42.284c11.766,0,21.76,4.179,29.967,12.529c8.212,8.353,12.317,18.366,12.317,30.039V358.066z M608.267,374.154h16.229
		c4.271,0,7.876-1.541,10.822-4.628c2.941-3.082,4.412-6.714,4.412-10.89v-93.395c0-4.271-1.496-7.926-4.482-10.963
		c-2.992-3.037-6.576-4.558-10.752-4.558h-16.229V374.154z"/>
	<path fill="#FFFFFF" d="M693.869,400.777V222.245h76.598v27.05h-49.688v48.691h36.301v27.05h-36.301v48.691h49.688v27.05H693.869z"
		/>
	<rect x="692.291" y="188.611" fill="#FFFFFF" width="77.956" height="16.438"/>
</g>
</svg>
