<?xml version="1.0" encoding="utf-8"?>
<!-- Generator: Adobe Illustrator 16.0.0, SVG Export Plug-In . SVG Version: 6.00 Build 0)  -->
<!DOCTYPE svg PUBLIC "-//W3C//DTD SVG 1.1//EN" "http://www.w3.org/Graphics/SVG/1.1/DTD/svg11.dtd">
<svg version="1.1" id="Layer_1" xmlns="http://www.w3.org/2000/svg" xmlns:xlink="http://www.w3.org/1999/xlink" x="0px" y="0px"
	 width="15.202px" height="15.217px" viewBox="0 0 15.202 15.217" enable-background="new 0 0 15.202 15.217" xml:space="preserve">
<path d="M8.488,6.728l0-5.844c0-0.243-0.099-0.464-0.259-0.625C8.07,0.099,7.848,0,7.604,0C7.131-0.001,6.76,0.346,6.715,0.762
	L6.712,0.79l0,5.938L0.776,6.727C0.332,6.774-0.017,7.146,0,7.604c0,0.489,0.392,0.881,0.884,0.884l5.829,0.001v5.845
	c0,0.243,0.099,0.465,0.259,0.625c0.16,0.159,0.381,0.258,0.625,0.259c0.473,0,0.845-0.346,0.89-0.763l0.002-0.027V8.489h5.937
	c0.443-0.046,0.792-0.418,0.775-0.876c0-0.489-0.393-0.881-0.884-0.884L8.488,6.728z"/>
</svg>
