<?xml version="1.0" encoding="utf-8"?>
<!-- Generator: Adobe Illustrator 15.0.0, SVG Export Plug-In . SVG Version: 6.00 Build 0)  -->
<!DOCTYPE svg PUBLIC "-//W3C//DTD SVG 1.1//EN" "http://www.w3.org/Graphics/SVG/1.1/DTD/svg11.dtd">
<svg version="1.1" id="Layer_1" xmlns="http://www.w3.org/2000/svg" xmlns:xlink="http://www.w3.org/1999/xlink" x="0px" y="0px"
	 width="40.732px" height="37.283px" viewBox="0 0 40.732 37.283" enable-background="new 0 0 40.732 37.283" xml:space="preserve">
<g>
	<path fill="#FFFFFF" d="M7.721,22.677c0.609-0.111,1.178-0.313,1.697-0.59c2.486,2.523,6.138,3.811,9.884,3.12
		c2.026-0.372,3.812-1.284,5.258-2.547c1.649,1.187,3.759,1.73,5.915,1.334c4.202-0.772,6.98-4.805,6.209-9.007
		c-0.773-4.201-4.807-6.981-9.007-6.208C27.43,8.825,27.19,8.883,26.954,8.95C24.708,4.924,20.085,2.575,15.3,3.456
		c-4.153,0.764-7.331,3.756-8.534,7.516c-0.388-0.007-0.783,0.023-1.18,0.096c-3.206,0.59-5.327,3.667-4.737,6.872
		C1.439,21.146,4.515,23.267,7.721,22.677"/>
	<path fill="none" stroke="#000000" stroke-width="1.5" stroke-miterlimit="10" d="M7.721,22.677
		c0.609-0.111,1.178-0.313,1.697-0.59c2.486,2.523,6.138,3.811,9.884,3.12c2.026-0.372,3.812-1.284,5.258-2.547
		c1.649,1.187,3.759,1.73,5.915,1.334c4.202-0.772,6.98-4.805,6.209-9.007c-0.773-4.201-4.807-6.981-9.007-6.208
		C27.43,8.825,27.19,8.883,26.954,8.95C24.708,4.924,20.085,2.575,15.3,3.456c-4.153,0.764-7.331,3.756-8.534,7.516
		c-0.388-0.007-0.783,0.023-1.18,0.096c-3.206,0.59-5.327,3.667-4.737,6.872C1.439,21.146,4.515,23.267,7.721,22.677z"/>
	<path fill-rule="evenodd" clip-rule="evenodd" d="M22.184,30.001c-0.004,1.297,1.042,2.35,2.34,2.354
		c1.297,0.004,2.351-1.042,2.354-2.339c0.004-1.298-2.332-4.702-2.332-4.702S22.188,28.703,22.184,30.001"/>
	<path fill-rule="evenodd" clip-rule="evenodd" d="M10.161,30.682c0,1.297,1.05,2.347,2.347,2.347c1.297,0,2.347-1.05,2.347-2.347
		s-2.347-4.694-2.347-4.694S10.161,29.385,10.161,30.682"/>
	<path fill-rule="evenodd" clip-rule="evenodd" d="M16.406,34.937c0,1.297,1.05,2.347,2.347,2.347s2.347-1.05,2.347-2.347
		s-2.347-4.694-2.347-4.694S16.406,33.64,16.406,34.937"/>
	<path fill="#231F20" d="M35.691,3.493c-0.457,0-0.908,0.062-1.349,0.186C32.951,1.395,30.505,0,27.833,0
		c-1.85,0-3.579,0.678-4.936,1.847c-0.002,0.002,0.001,0.007-0.001,0.009c-0.152,0.124-0.261,0.301-0.261,0.513
		c0,0.376,0.305,0.684,0.681,0.681c0.28-0.002,0.429-0.166,0.491-0.212c0.007-0.008,0.01-0.019,0.018-0.026l0.002,0.001
		c1.108-0.93,2.513-1.463,4.006-1.463c2.358,0,4.504,1.325,5.596,3.458l0.283,0.554l0.575-0.238
		c0.452-0.187,0.925-0.281,1.404-0.281c2.035,0,3.691,1.656,3.691,3.691c0,1.262-0.633,2.387-1.602,3.053
		c-0.167,0.123-0.283,0.312-0.283,0.536c0,0.373,0.303,0.678,0.676,0.676c0.278-0.002,0.425-0.166,0.487-0.211
		c1.251-0.918,2.071-2.387,2.071-4.054C40.732,5.754,38.471,3.493,35.691,3.493"/>
</g>
</svg>
