<?xml version="1.0" encoding="utf-8"?>
<!-- Generator: Adobe Illustrator 15.0.0, SVG Export Plug-In . SVG Version: 6.00 Build 0)  -->
<!DOCTYPE svg PUBLIC "-//W3C//DTD SVG 1.1//EN" "http://www.w3.org/Graphics/SVG/1.1/DTD/svg11.dtd">
<svg version="1.1" id="Layer_1" xmlns="http://www.w3.org/2000/svg" xmlns:xlink="http://www.w3.org/1999/xlink" x="0px" y="0px"
	 width="497.853px" height="452.537px" viewBox="-415.141 377.352 497.853 452.537"
	 enable-background="new -415.141 377.352 497.853 452.537" xml:space="preserve">
<g id="Layer_2" display="none">
	
		<rect x="-2946.688" y="-1617.768" display="inline" fill="#6A6800" stroke="#6A6800" stroke-miterlimit="10" width="3286.44" height="2821.319"/>
</g>
<path fill="none" stroke="#000000" stroke-width="14" stroke-linecap="round" stroke-miterlimit="10" d="M-116.8,655.2
	c19.584,14.688,46.512,20.808,72.216,15.911c51.408-9.791,85.68-58.751,75.888-110.159c-9.792-51.408-58.752-85.681-110.16-75.889
	c-2.448,0-6.12,1.225-8.568,2.448c-26.928-48.96-84.456-78.336-143.208-67.32c-51.408,9.792-89.352,46.513-104.04,91.801
	c-4.896,0-9.792,0-14.688,1.224c-39.168,7.345-64.872,45.288-57.528,84.456s45.288,64.872,84.456,57.528
	c7.344-1.224,14.688-3.672,20.808-7.345c12.24,13.465,12.24,13.465,29.376,23.256"/>
<path d="M19.063,420.191c-6.12,0-11.016,1.225-15.912,2.449c-17.136-28.152-46.512-45.289-79.56-45.289
	c-22.032,0-44.064,8.568-59.977,22.032l0,0c-2.448,1.224-3.672,3.672-3.672,6.12c0,4.896,3.672,8.568,8.568,8.568
	c3.672,0,4.896-2.448,6.12-2.448l0,0l0,0c13.463-11.017,30.6-18.36,48.96-18.36c29.376,0,55.08,15.912,68.543,42.84l3.672,7.344
	L3.151,441c6.12-2.448,11.017-3.672,17.136-3.672c24.48,0,45.288,20.808,45.288,45.288c0,15.911-7.343,29.376-19.583,37.944
	c-2.448,1.224-3.672,3.672-3.672,6.119c0,4.896,3.672,8.568,8.568,8.568c3.672,0,4.896-2.448,6.12-2.448
	c15.912-11.016,25.704-29.376,25.704-50.184C80.264,448.344,53.336,420.191,19.063,420.191z"/>
<line fill="none" stroke="#000000" stroke-width="14" stroke-linecap="round" stroke-miterlimit="10" x1="-233.08" y1="656.424" x2="-275.92" y2="723.744"/>
<line fill="none" stroke="#000000" stroke-width="14" stroke-linecap="round" stroke-miterlimit="10" x1="-233.08" y1="720.072" x2="-299.176" y2="822.889"/>
<line fill="none" stroke="#000000" stroke-width="14" stroke-linecap="round" stroke-miterlimit="10" x1="-185.344" y1="649.08" x2="-211.048" y2="688.248"/>
<line fill="none" stroke="#000000" stroke-width="14" stroke-linecap="round" stroke-miterlimit="10" x1="-296.728" y1="753.12" x2="-304.072" y2="764.136"/>
<g>
	
		<line fill="none" stroke="#000000" stroke-width="14" stroke-linecap="round" stroke-miterlimit="10" x1="-137.608" y1="638.064" x2="-144.952" y2="649.08"/>
	
		<line fill="none" stroke="#000000" stroke-width="14" stroke-linecap="round" stroke-miterlimit="10" x1="-219.616" y1="762.912" x2="-225.736" y2="773.928"/>
	
		<line fill="none" stroke="#000000" stroke-width="14" stroke-linecap="round" stroke-miterlimit="10" x1="-158.417" y1="669.889" x2="-202.48" y2="737.208"/>
</g>
</svg>
