<?xml version="1.0" encoding="utf-8"?>
<!-- Generator: Adobe Illustrator 15.0.0, SVG Export Plug-In . SVG Version: 6.00 Build 0)  -->
<!DOCTYPE svg PUBLIC "-//W3C//DTD SVG 1.1//EN" "http://www.w3.org/Graphics/SVG/1.1/DTD/svg11.dtd">
<svg version="1.1" id="Layer_1" xmlns="http://www.w3.org/2000/svg" xmlns:xlink="http://www.w3.org/1999/xlink" x="0px" y="0px"
	 width="40.73px" height="37.628px" viewBox="0.522 2.523 40.73 37.628" enable-background="new 0.522 2.523 40.73 37.628"
	 xml:space="preserve">
<g>
	<path fill="#FFFFFF" d="M8.243,25.2c0.608-0.112,1.178-0.312,1.696-0.59c2.486,2.522,6.139,3.81,9.884,3.12
		c2.026-0.372,3.812-1.284,5.259-2.547c1.648,1.188,3.759,1.73,5.915,1.334c4.2-0.771,6.979-4.805,6.209-9.007
		c-0.773-4.201-4.808-6.981-9.009-6.208c-0.246,0.046-0.485,0.104-0.723,0.171c-2.245-4.026-6.869-6.375-11.653-5.494
		c-4.152,0.764-7.33,3.756-8.533,7.516c-0.389-0.007-0.783,0.023-1.181,0.096c-3.206,0.59-5.327,3.667-4.736,6.872
		C1.96,23.67,5.037,25.791,8.243,25.2"/>
	<path fill="none" stroke="#010202" stroke-width="1.5" stroke-miterlimit="10" d="M8.243,25.2c0.608-0.112,1.178-0.312,1.696-0.59
		c2.486,2.522,6.139,3.81,9.884,3.12c2.026-0.372,3.812-1.284,5.259-2.547c1.648,1.188,3.759,1.73,5.915,1.334
		c4.2-0.771,6.979-4.805,6.209-9.007c-0.773-4.201-4.808-6.981-9.009-6.208c-0.246,0.046-0.485,0.104-0.723,0.171
		c-2.245-4.026-6.869-6.375-11.653-5.494c-4.152,0.764-7.33,3.756-8.533,7.516c-0.389-0.007-0.783,0.023-1.181,0.096
		c-3.206,0.59-5.327,3.667-4.736,6.872C1.96,23.67,5.037,25.791,8.243,25.2z"/>
	<path fill="#231F20" d="M36.213,6.017c-0.457,0-0.909,0.062-1.35,0.186c-1.392-2.284-3.837-3.679-6.509-3.679
		c-1.85,0-3.579,0.678-4.936,1.847c-0.002,0.002,0.001,0.007-0.001,0.009c-0.153,0.124-0.262,0.301-0.262,0.513
		c0,0.376,0.306,0.684,0.682,0.681c0.28-0.002,0.429-0.166,0.491-0.212c0.007-0.008,0.01-0.019,0.017-0.026l0.002,0.001
		c1.109-0.93,2.514-1.463,4.007-1.463c2.358,0,4.504,1.325,5.597,3.458l0.282,0.554l0.575-0.238
		c0.451-0.187,0.925-0.281,1.404-0.281c2.035,0,3.69,1.656,3.69,3.691c0,1.262-0.633,2.387-1.603,3.053
		c-0.167,0.123-0.282,0.312-0.282,0.536c0,0.373,0.303,0.678,0.676,0.676c0.277-0.002,0.426-0.166,0.487-0.211
		c1.251-0.918,2.071-2.387,2.071-4.054C41.254,8.277,38.993,6.017,36.213,6.017"/>
	<path fill="#010202" d="M21.278,36.66l-0.919-0.529c0.028-0.16,0.05-0.323,0.05-0.492c0-0.17-0.021-0.333-0.052-0.492l0.922-0.531
		c0.432-0.251,0.577-0.805,0.33-1.232c-0.249-0.433-0.801-0.58-1.232-0.332l-0.931,0.537c-0.249-0.211-0.529-0.377-0.843-0.49V32.03
		c0-0.5-0.406-0.903-0.903-0.903c-0.498,0-0.903,0.403-0.903,0.903v1.066c-0.313,0.112-0.595,0.28-0.845,0.491l-0.928-0.537
		c-0.433-0.248-0.985-0.102-1.234,0.332c-0.25,0.43-0.1,0.983,0.332,1.232l0.918,0.53c-0.03,0.16-0.049,0.323-0.049,0.493
		c0,0.169,0.019,0.332,0.049,0.492l-0.918,0.529c-0.433,0.249-0.582,0.805-0.332,1.235c0.249,0.433,0.802,0.579,1.232,0.329
		l0.929-0.532c0.25,0.211,0.531,0.377,0.846,0.488v1.069c0,0.498,0.405,0.901,0.903,0.901c0.497,0,0.903-0.403,0.903-0.901v-1.069
		c0.313-0.111,0.598-0.277,0.844-0.492l0.93,0.536c0.432,0.25,0.983,0.104,1.232-0.329C21.857,37.465,21.712,36.912,21.278,36.66"/>
	<path fill="#010202" d="M7.309,32.138c-0.406,0.968,0.049,2.079,1.018,2.484c0.969,0.407,2.081-0.047,2.487-1.015
		c0.407-0.971-0.283-4.24-0.283-4.24S7.716,31.168,7.309,32.138"/>
	<path fill="#010202" d="M24.155,32.624c-0.406,0.968,0.049,2.079,1.018,2.484c0.969,0.407,2.08-0.047,2.486-1.015
		c0.407-0.971-0.282-4.24-0.282-4.24S24.561,31.654,24.155,32.624"/>
</g>
</svg>
