<?xml version="1.0" encoding="utf-8"?>
<!-- Generator: Adobe Illustrator 15.0.0, SVG Export Plug-In . SVG Version: 6.00 Build 0)  -->
<!DOCTYPE svg PUBLIC "-//W3C//DTD SVG 1.1//EN" "http://www.w3.org/Graphics/SVG/1.1/DTD/svg11.dtd">
<svg version="1.1" id="Layer_1" xmlns="http://www.w3.org/2000/svg" xmlns:xlink="http://www.w3.org/1999/xlink" x="0px" y="0px"
	 width="40.732px" height="37.629px" viewBox="0 0 40.732 37.629" enable-background="new 0 0 40.732 37.629" xml:space="preserve">
<g>
	<path fill="#FFFFFF" d="M7.721,22.677c0.609-0.112,1.178-0.313,1.697-0.59c2.486,2.522,6.138,3.81,9.884,3.12
		c2.026-0.372,3.812-1.284,5.258-2.547c1.649,1.187,3.759,1.73,5.915,1.334c4.201-0.772,6.98-4.805,6.209-9.007
		c-0.773-4.201-4.807-6.981-9.008-6.208c-0.247,0.046-0.486,0.104-0.723,0.171C24.708,4.924,20.084,2.575,15.3,3.456
		c-4.153,0.764-7.331,3.756-8.534,7.516c-0.388-0.007-0.783,0.023-1.18,0.096c-3.206,0.59-5.327,3.667-4.737,6.872
		C1.438,21.146,4.515,23.267,7.721,22.677"/>
	<path fill="none" stroke="#000000" stroke-width="1.5" stroke-miterlimit="10" d="M7.721,22.677
		c0.609-0.112,1.178-0.313,1.697-0.59c2.486,2.522,6.138,3.81,9.884,3.12c2.026-0.372,3.812-1.284,5.258-2.547
		c1.649,1.187,3.759,1.73,5.915,1.334c4.201-0.772,6.98-4.805,6.209-9.007c-0.773-4.201-4.807-6.981-9.008-6.208
		c-0.247,0.046-0.486,0.104-0.723,0.171C24.708,4.924,20.084,2.575,15.3,3.456c-4.153,0.764-7.331,3.756-8.534,7.516
		c-0.388-0.007-0.783,0.023-1.18,0.096c-3.206,0.59-5.327,3.667-4.737,6.872C1.438,21.146,4.515,23.267,7.721,22.677z"/>
	<path fill="#231F20" d="M35.691,3.493c-0.457,0-0.909,0.062-1.349,0.186C32.95,1.395,30.505,0,27.833,0
		c-1.85,0-3.579,0.678-4.936,1.847c-0.002,0.002,0.001,0.007-0.001,0.009c-0.153,0.124-0.261,0.301-0.261,0.513
		c0,0.376,0.305,0.684,0.681,0.681c0.28-0.002,0.429-0.166,0.491-0.212c0.007-0.008,0.01-0.019,0.017-0.026l0.002,0.001
		c1.109-0.93,2.514-1.463,4.007-1.463c2.358,0,4.504,1.325,5.596,3.458l0.283,0.554l0.575-0.238
		c0.451-0.187,0.925-0.281,1.404-0.281c2.035,0,3.691,1.656,3.691,3.691c0,1.262-0.633,2.387-1.603,3.053
		c-0.167,0.123-0.282,0.312-0.282,0.536c0,0.373,0.303,0.678,0.676,0.676c0.277-0.002,0.425-0.166,0.487-0.211
		c1.251-0.918,2.071-2.387,2.071-4.054C40.732,5.754,38.471,3.493,35.691,3.493"/>
	<path fill-rule="evenodd" clip-rule="evenodd" d="M20.757,34.137l-0.919-0.53c0.028-0.16,0.049-0.323,0.049-0.492
		c0-0.17-0.021-0.333-0.051-0.492l0.922-0.531c0.431-0.251,0.577-0.805,0.33-1.232c-0.249-0.433-0.801-0.581-1.233-0.332
		l-0.93,0.537c-0.249-0.212-0.53-0.378-0.843-0.491v-1.067c0-0.5-0.406-0.904-0.904-0.904s-0.903,0.404-0.903,0.904v1.066
		c-0.313,0.112-0.595,0.28-0.845,0.492l-0.927-0.537c-0.433-0.249-0.986-0.102-1.235,0.331c-0.25,0.43-0.099,0.984,0.332,1.233
		l0.918,0.53c-0.03,0.16-0.049,0.323-0.049,0.493c0,0.169,0.019,0.332,0.049,0.492l-0.918,0.53
		c-0.432,0.249-0.582,0.805-0.332,1.235c0.249,0.433,0.802,0.579,1.233,0.329l0.928-0.532c0.25,0.211,0.532,0.377,0.846,0.488v1.07
		c0,0.498,0.405,0.901,0.903,0.901s0.904-0.403,0.904-0.901v-1.07c0.313-0.111,0.597-0.277,0.844-0.492l0.929,0.536
		c0.432,0.25,0.984,0.104,1.233-0.329C21.336,34.941,21.19,34.389,20.757,34.137"/>
	<path fill-rule="evenodd" clip-rule="evenodd" d="M27.588,30.068l-0.617-0.164c-0.015-0.195-0.062-0.382-0.148-0.561l0.449-0.448
		c0.211-0.211,0.209-0.552,0-0.76c-0.209-0.209-0.548-0.211-0.758,0l-0.45,0.447c-0.177-0.083-0.365-0.13-0.561-0.146l-0.163-0.617
		c-0.077-0.284-0.371-0.457-0.658-0.38c-0.287,0.078-0.454,0.371-0.379,0.658l0.164,0.608c-0.081,0.055-0.158,0.116-0.23,0.187
		c-0.07,0.073-0.13,0.149-0.186,0.229l-0.608-0.164c-0.286-0.076-0.582,0.096-0.659,0.38c-0.076,0.288,0.096,0.581,0.379,0.659
		l0.614,0.165c0.017,0.191,0.066,0.381,0.152,0.56l-0.45,0.45c-0.209,0.21-0.208,0.549,0.002,0.757
		c0.208,0.209,0.547,0.211,0.756,0.002l0.451-0.451c0.177,0.087,0.367,0.136,0.562,0.151l0.161,0.615
		c0.079,0.285,0.371,0.456,0.659,0.38c0.285-0.077,0.457-0.371,0.381-0.661l-0.164-0.608c0.076-0.054,0.155-0.115,0.229-0.185
		c0.069-0.071,0.13-0.15,0.185-0.229l0.609,0.164c0.286,0.077,0.581-0.095,0.657-0.379C28.043,30.441,27.874,30.147,27.588,30.068"
		/>
	<path fill-rule="evenodd" clip-rule="evenodd" d="M11.746,28.032l-0.607,0.163c-0.056-0.077-0.115-0.154-0.186-0.227
		c-0.073-0.07-0.149-0.132-0.229-0.186l0.163-0.61c0.076-0.286-0.094-0.582-0.377-0.656c-0.288-0.077-0.582,0.093-0.658,0.379
		l-0.167,0.616c-0.194,0.016-0.381,0.063-0.559,0.147l-0.45-0.448c-0.211-0.211-0.55-0.21-0.758,0c-0.21,0.21-0.21,0.55,0,0.76
		l0.448,0.448c-0.084,0.179-0.133,0.367-0.148,0.562l-0.615,0.164c-0.288,0.079-0.458,0.37-0.382,0.658
		c0.078,0.284,0.372,0.452,0.659,0.379l0.607-0.165c0.055,0.082,0.116,0.159,0.189,0.229c0.07,0.07,0.147,0.133,0.227,0.186
		L8.74,31.039c-0.077,0.288,0.094,0.584,0.379,0.66c0.287,0.077,0.579-0.093,0.656-0.38l0.166-0.613
		c0.195-0.016,0.383-0.064,0.562-0.149l0.45,0.448c0.208,0.211,0.547,0.207,0.758-0.002c0.208-0.208,0.211-0.547,0-0.757
		l-0.451-0.451c0.087-0.176,0.138-0.366,0.151-0.562l0.616-0.163c0.284-0.077,0.455-0.37,0.378-0.658
		C12.329,28.128,12.035,27.957,11.746,28.032"/>
</g>
</svg>
