<?xml version="1.0" encoding="utf-8"?>
<!-- Generator: Adobe Illustrator 15.0.0, SVG Export Plug-In . SVG Version: 6.00 Build 0)  -->
<!DOCTYPE svg PUBLIC "-//W3C//DTD SVG 1.1//EN" "http://www.w3.org/Graphics/SVG/1.1/DTD/svg11.dtd">
<svg version="1.1" id="Layer_1" xmlns="http://www.w3.org/2000/svg" xmlns:xlink="http://www.w3.org/1999/xlink" x="0px" y="0px"
	 width="485.24px" height="286.951px" viewBox="-415.112 442.568 485.24 286.951"
	 enable-background="new -415.112 442.568 485.24 286.951" xml:space="preserve">
<g id="Layer_2" display="none">
	
		<rect x="-2946.688" y="-1617.768" display="inline" fill="#6A6800" stroke="#6A6800" stroke-miterlimit="10" width="3286.44" height="2821.319"/>
</g>
<g>
	
		<line fill="none" stroke="#000000" stroke-width="14" stroke-linecap="round" stroke-miterlimit="10" x1="-408.112" y1="611.136" x2="12.943" y2="611.136"/>
	<path fill="none" stroke="#000000" stroke-width="14" stroke-linecap="round" stroke-miterlimit="10" d="M8.048,500.977
		c30.6,0,55.08,24.479,55.08,55.079c0,30.601-24.48,55.08-55.08,55.08"/>
	
		<line fill="none" stroke="#000000" stroke-width="14" stroke-linecap="round" stroke-miterlimit="10" x1="-408.112" y1="611.136" x2="12.943" y2="611.136"/>
	<g>
		<path fill="none" stroke="#000000" stroke-width="14" stroke-linecap="round" stroke-miterlimit="10" d="M-83.752,449.568
			c30.6,0,55.08,24.479,55.08,55.08c0,30.6-24.48,55.08-55.08,55.08"/>
		
			<line fill="none" stroke="#000000" stroke-width="14" stroke-linecap="round" stroke-miterlimit="10" x1="-266.128" y1="559.729" x2="-78.856" y2="559.729"/>
	</g>
	<path fill="none" stroke="#000000" stroke-width="14" stroke-linecap="round" stroke-miterlimit="10" d="M-279.592,722.52
		c-15.912,0-28.152-12.239-28.152-28.151s12.24-28.151,28.152-28.151"/>
	
		<line fill="none" stroke="#000000" stroke-width="14" stroke-linecap="round" stroke-miterlimit="10" x1="-89.872" y1="666.216" x2="-278.368" y2="666.216"/>
	<g>
		<path fill="none" stroke="#000000" stroke-width="14" stroke-linecap="round" stroke-miterlimit="10" d="M-349.36,563.4
			c-15.912,0-28.152-12.24-28.152-28.152s12.24-28.151,28.152-28.151"/>
		
			<line fill="none" stroke="#000000" stroke-width="14" stroke-linecap="round" stroke-miterlimit="10" x1="-160.864" y1="507.096" x2="-348.136" y2="507.096"/>
	</g>
</g>
</svg>
