<?xml version="1.0" encoding="utf-8"?>
<!-- Generator: Adobe Illustrator 15.0.0, SVG Export Plug-In . SVG Version: 6.00 Build 0)  -->
<!DOCTYPE svg PUBLIC "-//W3C//DTD SVG 1.1//EN" "http://www.w3.org/Graphics/SVG/1.1/DTD/svg11.dtd">
<svg version="1.1" id="Layer_1" xmlns="http://www.w3.org/2000/svg" xmlns:xlink="http://www.w3.org/1999/xlink" x="0px" y="0px"
	 width="40.73px" height="31.354px" viewBox="0.522 2.523 40.73 31.354" enable-background="new 0.522 2.523 40.73 31.354"
	 xml:space="preserve">
<g>
	<path fill="#FFFFFF" d="M8.243,25.2c0.608-0.112,1.178-0.312,1.696-0.59c2.486,2.522,6.139,3.81,9.884,3.12
		c2.026-0.372,3.812-1.284,5.259-2.547c1.648,1.188,3.759,1.73,5.915,1.334c4.2-0.771,6.979-4.805,6.209-9.007
		c-0.773-4.201-4.808-6.981-9.009-6.208c-0.246,0.046-0.485,0.104-0.723,0.171c-2.245-4.026-6.869-6.375-11.653-5.494
		c-4.152,0.764-7.33,3.756-8.533,7.516c-0.389-0.007-0.783,0.023-1.181,0.096c-3.206,0.59-5.327,3.667-4.736,6.872
		C1.96,23.67,5.037,25.791,8.243,25.2"/>
	<path fill="none" stroke="#010202" stroke-width="1.5" stroke-miterlimit="10" d="M30.997,26.518
		c4.2-0.771,6.979-4.805,6.209-9.007c-0.773-4.201-4.808-6.981-9.009-6.208c-0.246,0.046-0.485,0.104-0.723,0.171
		c-2.245-4.026-6.869-6.375-11.653-5.494c-4.152,0.764-7.33,3.756-8.533,7.516c-0.389-0.007-0.783,0.023-1.181,0.096
		c-3.206,0.59-5.327,3.667-4.736,6.872c0.147,0.802,0.45,1.536,0.871,2.176"/>
	<path fill="#231F20" d="M36.213,6.017c-0.457,0-0.909,0.062-1.35,0.186c-1.392-2.284-3.837-3.679-6.509-3.679
		c-1.85,0-3.579,0.678-4.936,1.847c-0.002,0.002,0.001,0.007-0.001,0.009c-0.153,0.124-0.262,0.301-0.262,0.513
		c0,0.376,0.306,0.684,0.682,0.681c0.28-0.002,0.429-0.166,0.491-0.212c0.007-0.008,0.01-0.019,0.017-0.026l0.002,0.001
		c1.109-0.93,2.514-1.463,4.007-1.463c2.358,0,4.504,1.325,5.597,3.458l0.282,0.554l0.575-0.238
		c0.451-0.187,0.925-0.281,1.404-0.281c2.035,0,3.69,1.656,3.69,3.691c0,1.262-0.633,2.387-1.603,3.053
		c-0.167,0.123-0.282,0.312-0.282,0.536c0,0.373,0.303,0.678,0.676,0.676c0.277-0.002,0.426-0.166,0.487-0.211
		c1.251-0.918,2.071-2.387,2.071-4.054C41.254,8.277,38.993,6.017,36.213,6.017"/>
	<g>
		<path fill="none" stroke="#000000" stroke-width="1.5" stroke-linecap="round" stroke-miterlimit="10" d="M10.752,20.615"/>
		<path fill="none" stroke="#000000" stroke-width="1.5" stroke-linecap="round" stroke-miterlimit="10" d="M12.758,22.083
			c1.163,0,2.105-0.943,2.105-2.105c0-1.163-0.942-2.105-2.105-2.105c-1.163,0-2.105,0.942-2.105,2.105"/>
		<path fill="none" stroke="#000000" stroke-width="1.5" stroke-linecap="round" stroke-miterlimit="10" d="M24.37,28.946
			c0,0.098,0.007,0.192,0.02,0.285"/>
		<path fill="none" stroke="#000000" stroke-width="1.5" stroke-linecap="round" stroke-miterlimit="10" d="M24.389,29.231
			c0.14,1.029,1.021,1.821,2.087,1.821c1.161,0,2.104-0.943,2.104-2.106c0-1.161-0.942-2.104-2.104-2.104"/>
		<path fill="none" stroke="#000000" stroke-width="1.5" stroke-linecap="round" stroke-miterlimit="10" d="M21.146,24.573
			c1.734,0,3.141-1.405,3.141-3.14c0-1.733-1.406-3.139-3.141-3.139c-1.733,0-3.138,1.405-3.138,3.139"/>
		<path fill="none" stroke="#000000" stroke-width="1.5" stroke-linecap="round" stroke-miterlimit="10" d="M14.511,30.257"/>
		<path fill="none" stroke="#000000" stroke-width="1.5" stroke-linecap="round" stroke-miterlimit="10" d="M17.651,27.118"/>
		<path fill="none" stroke="#000000" stroke-width="1.5" stroke-linecap="round" stroke-miterlimit="10" d="M14.511,29.988
			c0,1.734,1.405,3.14,3.139,3.14s3.139-1.405,3.139-3.14c0-1.633-1.248-2.975-2.843-3.124"/>
		
			<line fill="none" stroke="#000000" stroke-width="1.5" stroke-linecap="round" stroke-miterlimit="10" x1="6.744" y1="26.843" x2="26.066" y2="26.843"/>
		
			<line fill="none" stroke="#000000" stroke-width="1.5" stroke-linecap="round" stroke-miterlimit="10" x1="5.67" y1="22.083" x2="12.758" y2="22.083"/>
		
			<line fill="none" stroke="#000000" stroke-width="1.5" stroke-linecap="round" stroke-miterlimit="10" x1="4.26" y1="24.573" x2="21.146" y2="24.573"/>
	</g>
</g>
</svg>
