<?xml version="1.0" encoding="utf-8"?>
<!-- Generator: Adobe Illustrator 16.0.0, SVG Export Plug-In . SVG Version: 6.00 Build 0)  -->
<!DOCTYPE svg PUBLIC "-//W3C//DTD SVG 1.1//EN" "http://www.w3.org/Graphics/SVG/1.1/DTD/svg11.dtd">
<svg version="1.1" id="Layer_1" xmlns="http://www.w3.org/2000/svg" xmlns:xlink="http://www.w3.org/1999/xlink" x="0px" y="0px"
	 width="15.203px" height="15.217px" viewBox="0 0 15.203 15.217" enable-background="new 0 0 15.203 15.217" xml:space="preserve">
<path stroke="#000000" stroke-miterlimit="10" d="M7.605,6.358L3.473,2.226C3.301,2.054,3.075,1.968,2.848,1.967
	c-0.226,0-0.453,0.086-0.625,0.259C1.887,2.56,1.871,3.068,2.133,3.394L2.15,3.416l4.199,4.199l-4.198,4.196
	c-0.281,0.348-0.265,0.856,0.071,1.168c0.346,0.347,0.9,0.347,1.25,0l4.123-4.121l4.133,4.135c0.172,0.172,0.397,0.258,0.625,0.258
	c0.226,0,0.451-0.087,0.625-0.259c0.334-0.334,0.354-0.843,0.09-1.168l-0.019-0.021l-4.198-4.2l4.196-4.198
	c0.281-0.347,0.267-0.856-0.071-1.168c-0.346-0.346-0.899-0.345-1.25,0L7.605,6.358z"/>
</svg>
